<?xml version="1.0" encoding="UTF-8"?><svg id="Layer_1" xmlns="http://www.w3.org/2000/svg" xmlns:xlink="http://www.w3.org/1999/xlink" viewBox="0 0 400 400"><defs><style>.cls-1{fill:url(#linear-gradient-2);stroke:#606060;stroke-miterlimit:10;stroke-width:1.91px;}.cls-2{fill:url(#linear-gradient);stroke-width:0px;}</style><linearGradient id="linear-gradient" x1="8.8" y1="200" x2="391.2" y2="200" gradientUnits="userSpaceOnUse"><stop offset="0" stop-color="#fff" stop-opacity=".4"/><stop offset=".3" stop-color="#999"/><stop offset=".44" stop-color="#aeaeae" stop-opacity=".69"/><stop offset="1" stop-color="#fff" stop-opacity=".3"/></linearGradient><linearGradient id="linear-gradient-2" x1="28.78" y1="200" x2="371.22" y2="200" gradientUnits="userSpaceOnUse"><stop offset="0" stop-color="#fff" stop-opacity=".6"/><stop offset="1" stop-color="#fff" stop-opacity=".2"/></linearGradient></defs><path class="cls-2" d="m385.69,308.5L244.9,48.39c-8.64-15.96-25.84-25.87-44.9-25.87s-36.26,9.91-44.9,25.87L14.31,308.5c-7.67,14.17-7.32,30.9.93,44.75,8.9,14.95,25.75,24.23,43.97,24.23h281.57c18.22,0,35.07-9.28,43.97-24.23,8.25-13.85,8.6-30.58.93-44.75Zm-44.9,48.98H59.22c-22.47,0-37.17-21.24-27.31-39.46l73.37-135.55,67.42-124.56c11.11-20.52,43.52-20.52,54.62,0l67.42,124.56,73.37,135.55c9.86,18.22-4.84,39.46-27.31,39.46Z"/><path class="cls-1" d="m172.69,57.91c11.11-20.52,43.52-20.52,54.62,0l67.42,124.56,73.37,135.55c9.86,18.22-4.84,39.46-27.31,39.46H59.22c-22.47,0-37.17-21.24-27.31-39.46l73.37-135.55,67.42-124.56Z"/></svg>